<svg width="225" height="172" viewBox="0 0 225 172" fill="none" xmlns="http://www.w3.org/2000/svg">
<path d="M135.004 102.935C135.004 122.029 121.315 137.503 109.858 137.503C100.023 137.503 84.6257 122.012 84.6257 102.918C84.6257 83.8243 95.908 74.321 109.858 74.321C123.808 74.321 135.004 83.8417 135.004 102.935Z" stroke="#1E2A5A" stroke-width="3.31" stroke-linecap="round" stroke-linejoin="round"/>
<path d="M124.279 135.971C120.137 141.502 115.289 146.47 109.858 150.748C104.396 146.476 99.5189 141.508 95.3499 135.971C79.1851 143.768 67.6587 161.557 67.6587 161.557C81.19 166.461 95.4628 169.016 109.858 169.111C124.254 169.016 138.526 166.461 152.058 161.557C152.058 161.557 140.444 143.768 124.279 135.971Z" stroke="#1E2A5A" stroke-width="3.31" stroke-linecap="round" stroke-linejoin="round"/>
<path d="M172.634 110.211C172.634 121.907 164.247 131.393 157.167 131.393C151.151 131.393 141.717 121.907 141.717 110.211C141.717 98.5145 148.692 92.6837 157.167 92.6837C165.642 92.6837 172.634 98.5145 172.634 110.211Z" stroke="#FEE56D" stroke-width="3.31" stroke-linecap="round" stroke-linejoin="round"/>
<path d="M137.951 138.042C140.941 134.999 144.411 132.465 148.222 130.54C150.787 133.924 153.775 136.966 157.115 139.591C160.459 136.971 163.448 133.929 166.008 130.54C175.913 135.309 182.975 146.205 182.975 146.205C174.683 149.212 165.937 150.778 157.115 150.835C154.423 150.834 151.733 150.677 149.059 150.365C149.059 150.365 142.537 142.533 137.951 138.042Z" stroke="#FEE56D" stroke-width="3.31" stroke-linecap="round" stroke-linejoin="round"/>
<path d="M46.9775 110.211C46.9775 121.907 55.3651 131.393 62.4274 131.393C68.4609 131.393 77.8948 121.907 77.8948 110.211C77.8948 98.5145 70.9196 92.6837 62.4274 92.6837C53.9352 92.6837 46.9775 98.5145 46.9775 110.211Z" stroke="#6CA6C0" stroke-width="3.31" stroke-linecap="round" stroke-linejoin="round"/>
<path d="M81.5915 138.042C78.6032 134.996 75.1333 132.462 71.3206 130.54C68.7609 133.929 65.7715 136.971 62.4273 139.591C59.0911 136.968 56.1079 133.926 53.5515 130.54C43.5945 135.222 36.6194 146.205 36.6194 146.205C44.8997 149.177 53.6281 150.713 62.4273 150.748C65.1254 150.748 67.8212 150.591 70.501 150.278C70.501 150.278 77.0053 142.533 81.5915 138.042Z" stroke="#6CA6C0" stroke-width="3.31" stroke-linecap="round" stroke-linejoin="round"/>
<path d="M151.97 59.1783C151.97 49.849 167.664 42.2603 187.177 42.2603C206.69 42.2603 222.384 49.7794 222.384 59.1783C222.384 68.5772 206.69 76.1137 187.177 76.1137C183.263 76.1156 179.356 75.7955 175.494 75.1564L169.147 83.9984L164.159 71.9016C156.679 68.8035 151.97 64.2259 151.97 59.1783Z" stroke="#FEE56D" stroke-width="3" stroke-miterlimit="10"/>
<path d="M33.4283 22.2615C50.4476 22.2615 64.2409 30.7727 64.2409 41.2681C64.2409 47.3252 59.6548 52.7035 52.5053 56.1846L53.848 66.1404L43.8038 59.1783C40.3979 59.9372 36.9181 60.3166 33.4283 60.3096C16.409 60.2748 2.61572 51.7636 2.61572 41.2681C2.61572 30.7727 16.409 22.2615 33.4283 22.2615Z" stroke="#6CA6C0" stroke-width="3" stroke-miterlimit="10"/>
<path d="M121.28 2.61078C97.3205 2.61078 77.8948 12.3752 77.8948 24.3675C77.8948 31.2078 84.1724 37.3171 93.9899 41.3029C94.3909 41.477 94.8269 41.6162 95.2454 41.7729L98.4365 55.9409L114.287 45.8632C116.572 46.0546 118.909 46.159 121.263 46.159C145.24 46.159 164.665 36.3946 164.665 24.3675C164.665 12.3404 145.257 2.61078 121.28 2.61078Z" stroke="#1E2A5A" stroke-width="3" stroke-miterlimit="10"/>
</svg>
