<svg width="128" height="113" viewBox="0 0 128 113" fill="none" xmlns="http://www.w3.org/2000/svg">
<g clip-path="url(#clip0)">
<path d="M90.2199 14.22C93.6883 14.22 96.4999 11.4084 96.4999 7.94003C96.4999 4.47169 93.6883 1.66003 90.2199 1.66003C86.7516 1.66003 83.9399 4.47169 83.9399 7.94003C83.9399 11.4084 86.7516 14.22 90.2199 14.22Z" stroke="#FEE56D" stroke-width="3.31" stroke-linecap="round" stroke-linejoin="round"/>
<path d="M87.1001 13.38L70.3501 45.28" stroke="#FEE56D" stroke-width="3.31" stroke-linecap="round" stroke-linejoin="round"/>
<path d="M13.1299 103.52C19.4701 103.52 24.6099 98.3803 24.6099 92.0401C24.6099 85.6998 19.4701 80.5601 13.1299 80.5601C6.78967 80.5601 1.6499 85.6998 1.6499 92.0401C1.6499 98.3803 6.78967 103.52 13.1299 103.52Z" stroke="#FEE56D" stroke-width="3.31" stroke-linecap="round" stroke-linejoin="round"/>
<path d="M102.58 75.29C106.048 75.29 108.86 72.4783 108.86 69.01C108.86 65.5416 106.048 62.73 102.58 62.73C99.1115 62.73 96.2998 65.5416 96.2998 69.01C96.2998 72.4783 99.1115 75.29 102.58 75.29Z" stroke="#1E2A5A" stroke-width="3.31" stroke-linecap="round" stroke-linejoin="round"/>
<path d="M22.4297 85.33L50.5697 66.22" stroke="#FEE56D" stroke-width="3.31" stroke-linecap="round" stroke-linejoin="round"/>
<path d="M96.5 67.47L76 62.73" stroke="#1E2A5A" stroke-width="3.31" stroke-linecap="round" stroke-linejoin="round"/>
<path d="M70.8198 69.01L87.7898 93.83" stroke="#6CA6C0" stroke-width="3.31" stroke-linecap="round" stroke-linejoin="round"/>
<path d="M25.0898 42.2201L49.5398 52.1301" stroke="#6CA6C0" stroke-width="3.31" stroke-linecap="round" stroke-linejoin="round"/>
<path d="M104.44 38.6L77.0898 52.63" stroke="#6CA6C0" stroke-width="3.31" stroke-linecap="round" stroke-linejoin="round"/>
<path d="M63.0199 71.3701C70.7961 71.3701 77.0999 65.0663 77.0999 57.2901C77.0999 49.5139 70.7961 43.2101 63.0199 43.2101C55.2438 43.2101 48.9399 49.5139 48.9399 57.2901C48.9399 65.0663 55.2438 71.3701 63.0199 71.3701Z" stroke="#1E2A5A" stroke-width="3.31" stroke-linecap="round" stroke-linejoin="round"/>
<path d="M50.5698 25.7C56.9101 25.7 62.0498 20.5602 62.0498 14.22C62.0498 7.87976 56.9101 2.73999 50.5698 2.73999C44.2296 2.73999 39.0898 7.87976 39.0898 14.22C39.0898 20.5602 44.2296 25.7 50.5698 25.7Z" stroke="#1E2A5A" stroke-width="3.31" stroke-linecap="round" stroke-linejoin="round"/>
<path d="M55.8098 101.46C59.2781 101.46 62.0898 98.6484 62.0898 95.18C62.0898 91.7117 59.2781 88.9 55.8098 88.9C52.3414 88.9 49.5298 91.7117 49.5298 95.18C49.5298 98.6484 52.3414 101.46 55.8098 101.46Z" stroke="#1E2A5A" stroke-width="3.31" stroke-linecap="round" stroke-linejoin="round"/>
<path d="M60.03 71.37L57.02 89.01" stroke="#1E2A5A" stroke-width="3.31" stroke-linecap="round" stroke-linejoin="round"/>
<path d="M53.75 25.24L58.53 43.95" stroke="#1E2A5A" stroke-width="3.31" stroke-linecap="round" stroke-linejoin="round"/>
<path d="M19.4099 45.82C22.8782 45.82 25.6899 43.0084 25.6899 39.54C25.6899 36.0717 22.8782 33.26 19.4099 33.26C15.9415 33.26 13.1299 36.0717 13.1299 39.54C13.1299 43.0084 15.9415 45.82 19.4099 45.82Z" stroke="#6CA6C0" stroke-width="3.31" stroke-linecap="round" stroke-linejoin="round"/>
<path d="M114.06 43.82C120.4 43.82 125.54 38.6802 125.54 32.34C125.54 25.9998 120.4 20.86 114.06 20.86C107.72 20.86 102.58 25.9998 102.58 32.34C102.58 38.6802 107.72 43.82 114.06 43.82Z" stroke="#6CA6C0" stroke-width="3.31" stroke-linecap="round" stroke-linejoin="round"/>
<path d="M93.2599 110.68C98.4072 110.68 102.58 106.507 102.58 101.36C102.58 96.2127 98.4072 92.04 93.2599 92.04C88.1126 92.04 83.9399 96.2127 83.9399 101.36C83.9399 106.507 88.1126 110.68 93.2599 110.68Z" stroke="#6CA6C0" stroke-width="3.31" stroke-linecap="round" stroke-linejoin="round"/>
</g>
<defs>
<clipPath id="clip0">
<rect width="127.19" height="112.34" fill="white"/>
</clipPath>
</defs>
</svg>
