<svg width="188" height="173" viewBox="0 0 188 173" fill="none" xmlns="http://www.w3.org/2000/svg">
<path d="M185.204 40.7599H4.87964V170.195H185.204V40.7599Z" stroke="#1E2A5A" stroke-width="3.31" stroke-linecap="round" stroke-linejoin="round"/>
<path d="M181.952 2.80677L2.80762 23.4739L4.88068 41.559L184.025 20.8918L181.952 2.80677Z" stroke="#1E2A5A" stroke-width="3.31" stroke-linecap="round" stroke-linejoin="round"/>
<path d="M18.8407 39.791L5.26929 41.3548L20.823 21.3998L34.3944 19.836L18.8407 39.791Z" stroke="#1E2A5A" stroke-width="3.31" stroke-linecap="round" stroke-linejoin="round"/>
<path d="M43.442 36.9524L29.8706 38.5162L45.4074 18.5612L58.9788 16.9974L43.442 36.9524Z" stroke="#1E2A5A" stroke-width="3.31" stroke-linecap="round" stroke-linejoin="round"/>
<path d="M68.0262 34.1139L54.4548 35.6776L70.0085 15.7226L83.5799 14.1589L68.0262 34.1139Z" stroke="#1E2A5A" stroke-width="3.31" stroke-linecap="round" stroke-linejoin="round"/>
<path d="M92.6275 31.2753L79.0562 32.8391L94.5929 12.8841L108.164 11.3203L92.6275 31.2753Z" stroke="#1E2A5A" stroke-width="3.31" stroke-linecap="round" stroke-linejoin="round"/>
<path d="M117.212 28.4368L103.641 30.0005L119.177 10.0625L132.766 8.48175L117.212 28.4368Z" stroke="#1E2A5A" stroke-width="3.31" stroke-linecap="round" stroke-linejoin="round"/>
<path d="M141.796 25.5982L128.225 27.1619L143.779 7.22392L157.35 5.66016L141.796 25.5982Z" stroke="#1E2A5A" stroke-width="3.31" stroke-linecap="round" stroke-linejoin="round"/>
<path d="M166.398 22.7595L152.826 24.3233L168.363 4.3853L181.951 2.82153L166.398 22.7595Z" stroke="#1E2A5A" stroke-width="3.31" stroke-linecap="round" stroke-linejoin="round"/>
<path d="M185.204 151.974H4.87964V170.178H185.204V151.974Z" stroke="#1E2A5A" stroke-width="3.31" stroke-linecap="round" stroke-linejoin="round"/>
<path d="M18.9593 170.008H5.30322L23.0087 151.974H36.6817L18.9593 170.008Z" stroke="#1E2A5A" stroke-width="3.31" stroke-linecap="round" stroke-linejoin="round"/>
<path d="M43.7131 170.008H30.04L47.7625 151.974H61.4355L43.7131 170.008Z" stroke="#1E2A5A" stroke-width="3.31" stroke-linecap="round" stroke-linejoin="round"/>
<path d="M68.4667 170.008H54.7937L72.5161 151.974H86.1892L68.4667 170.008Z" stroke="#1E2A5A" stroke-width="3.31" stroke-linecap="round" stroke-linejoin="round"/>
<path d="M93.2206 170.008H79.5476L97.27 151.974H110.943L93.2206 170.008Z" stroke="#1E2A5A" stroke-width="3.31" stroke-linecap="round" stroke-linejoin="round"/>
<path d="M117.974 170.008H104.301L122.024 151.974H135.697L117.974 170.008Z" stroke="#1E2A5A" stroke-width="3.31" stroke-linecap="round" stroke-linejoin="round"/>
<path d="M142.728 170.008H129.055L146.778 151.974H160.434L142.728 170.008Z" stroke="#1E2A5A" stroke-width="3.31" stroke-linecap="round" stroke-linejoin="round"/>
<path d="M167.482 170.008H153.809L171.531 151.974H185.204L167.482 170.008Z" stroke="#1E2A5A" stroke-width="3.31" stroke-linecap="round" stroke-linejoin="round"/>
<path d="M72.3298 70.4544L117.754 96.7665L72.3298 123.095V70.4544Z" stroke="#6CA6C0" stroke-width="3.31" stroke-linecap="round" stroke-linejoin="round"/>
</svg>
