<svg width="144" height="172" viewBox="0 0 144 172" fill="none" xmlns="http://www.w3.org/2000/svg">
<path d="M71.9929 169.683C85.9803 148.846 141.678 133.215 141.678 73.9555V38.1292C128.04 38.1515 114.595 34.9113 102.47 28.6802C90.3452 22.4491 79.8942 13.4087 71.9929 2.31677C64.0929 13.4068 53.6442 22.446 41.5221 28.677C29.4 34.908 15.9578 38.1492 2.32178 38.1292V73.9695C2.32178 133.215 58.0615 148.846 71.9929 169.683Z" stroke="#1E2A5A" stroke-width="3.31" stroke-linecap="round" stroke-linejoin="round"/>
<path d="M71.9928 150.395C68.3421 147.409 64.3417 144.492 60.2574 141.505C39.8638 126.585 16.7847 109.684 16.7847 73.9695V49.7549C37.5407 46.8986 56.8624 37.5741 71.9928 23.1119C87.1495 37.5843 106.501 46.909 127.285 49.7549V73.9695C127.285 109.698 104.164 126.599 83.7702 141.519C79.6439 144.492 75.6575 147.409 71.9928 150.395Z" stroke="#1E2A5A" stroke-width="3.31" stroke-linecap="round" stroke-linejoin="round"/>
<path d="M87.3092 76.7608H55.2222V98.9656H87.3092V76.7608Z" stroke="#6CA6C0" stroke-width="3" stroke-linecap="round" stroke-linejoin="round"/>
<path d="M71.2655 59.7199C73.6063 59.7199 75.8512 60.6477 77.5064 62.2993C79.1616 63.9508 80.0915 66.1908 80.0915 68.5265V76.7608H62.4395V68.5265C62.4395 66.1908 63.3693 63.9508 65.0245 62.2993C66.6797 60.6477 68.9247 59.7199 71.2655 59.7199Z" stroke="#6CA6C0" stroke-width="3" stroke-linecap="round" stroke-linejoin="round"/>
<path d="M73.7413 84.9254C73.7383 85.4163 73.5888 85.8952 73.3119 86.3009C73.0349 86.7067 72.6431 87.0209 72.1864 87.2035C71.7297 87.3861 71.2288 87.4288 70.7477 87.3261C70.2666 87.2234 69.8271 86.98 69.4852 86.627C69.1433 86.274 68.9146 85.8273 68.8282 85.344C68.7419 84.8607 68.8018 84.3627 69.0003 83.9136C69.1989 83.4644 69.527 83.0844 69.943 82.8222C70.3589 82.5599 70.8437 82.4273 71.3355 82.4411C71.9823 82.4593 72.5963 82.7295 73.0459 83.1939C73.4956 83.6582 73.7452 84.2797 73.7413 84.9254V84.9254Z" stroke="#6CA6C0" stroke-width="2" stroke-linecap="round" stroke-linejoin="round"/>
<path d="M72.1608 85.2045H70.3564V92.7689H72.1608V85.2045Z" stroke="#6CA6C0" stroke-width="2" stroke-linecap="round" stroke-linejoin="round"/>
</svg>
