<svg width="154" height="169" viewBox="0 0 154 169" fill="none" xmlns="http://www.w3.org/2000/svg">
<path d="M140.554 44.756L115.458 19.7169L121.732 13.4571L110.553 2.28882L80.9797 31.7952L92.187 42.9773L98.4609 36.7176L123.529 61.7566C145.1 83.2108 139.656 102.031 139.656 102.031C154.898 86.8646 156.239 60.4054 140.554 44.756Z" stroke="#6CA6C0" stroke-width="3.31" stroke-linecap="round" stroke-linejoin="round"/>
<path d="M110.884 49.1406L76.5715 82.5076" stroke="#6CA6C0" stroke-width="3.31" stroke-linecap="round" stroke-linejoin="round"/>
<path d="M63.1395 95.5787L12.0503 145.257L25.0541 158.218L74.8719 107.23" stroke="#6CA6C0" stroke-width="3.31" stroke-linecap="round" stroke-linejoin="round"/>
<path d="M87.917 93.869L121.387 59.6057" stroke="#6CA6C0" stroke-width="3.31" stroke-linecap="round" stroke-linejoin="round"/>
<path d="M138.191 42.3982L144.382 36.0695L134.487 26.1835L128.131 32.3605" stroke="#6CA6C0" stroke-width="3.31" stroke-linecap="round" stroke-linejoin="round"/>
<path d="M58.2336 54.7385C59.312 50.7531 59.3163 46.5543 58.2462 42.5667C57.176 38.5791 55.0694 34.9441 52.1394 32.0296L48.6155 28.5137C45.6944 25.5902 42.0513 23.4883 38.0547 22.4206C34.0582 21.3529 29.8498 21.3572 25.8555 22.4331L23.8102 22.9847L42.0653 41.2125L21.9032 61.3292L3.63436 43.1014L3.09542 45.1421C2.01707 49.1274 2.01273 53.3263 3.08286 57.3139C4.15298 61.3015 6.25961 64.9364 9.18964 67.851L12.7135 71.3669C15.6346 74.2904 19.2777 76.3922 23.2743 77.46C27.2709 78.5277 31.4792 78.5234 35.4736 77.4474L40.2826 76.1651C41.711 75.7667 43.099 75.2358 44.4283 74.5795C59.4965 92.8609 76.3105 109.637 94.6331 124.671C93.9689 125.997 93.4322 127.382 93.0301 128.808L91.7449 133.592C90.6771 137.582 90.6794 141.781 91.7514 145.769C92.8235 149.757 94.9277 153.394 97.8529 156.315L101.363 159.817C104.29 162.736 107.935 164.835 111.933 165.905C115.93 166.975 120.139 166.977 124.137 165.911L126.182 165.36L107.913 147.132L128.075 127.015L146.344 145.243L146.897 143.203C147.965 139.213 147.962 135.014 146.89 131.026C145.818 127.038 143.714 123.401 140.789 120.48L137.279 116.978C134.351 114.059 130.706 111.96 126.709 110.89C122.712 109.82 118.503 109.818 114.505 110.883L109.696 112.18C108.267 112.578 106.88 113.109 105.55 113.765C90.4905 95.4807 73.6807 78.7041 55.3592 63.6732C56.017 62.3468 56.5491 60.962 56.9484 59.5368L58.2336 54.7385Z" stroke="#1E2A5A" stroke-width="3.31" stroke-linecap="round" stroke-linejoin="round"/>
</svg>
